<svg width="11" height="11" viewBox="0 0 11 11" fill="none" xmlns="http://www.w3.org/2000/svg">
<path d="M9.44304 0.560695C9.26531 0.382935 9.0543 0.241926 8.82206 0.145721C8.58983 0.0495162 8.34092 0 8.08954 0C7.83817 0 7.58926 0.0495162 7.35702 0.145721C7.12479 0.241926 6.91378 0.382935 6.73604 0.560695L6.18604 1.1117C6.15854 1.13368 6.1334 1.15849 6.11104 1.1857L0.651042 6.6467C0.581231 6.71633 0.533567 6.80505 0.514042 6.9017L0.0100423 9.4017C-0.00640032 9.48249 -0.00260544 9.5661 0.0210889 9.64508C0.0447832 9.72406 0.0876416 9.79595 0.145847 9.85435C0.204052 9.91276 0.275798 9.95586 0.354694 9.97982C0.43359 10.0038 0.517188 10.0079 0.598042 9.9917L3.10204 9.4917C3.19869 9.47217 3.28741 9.42451 3.35704 9.3547L9.44304 3.2687C9.6208 3.09096 9.76181 2.87995 9.85802 2.64772C9.95422 2.41548 10.0037 2.16657 10.0037 1.9152C10.0037 1.66382 9.95422 1.41491 9.85802 1.18268C9.76181 0.95044 9.6208 0.73943 9.44304 0.561695V0.560695ZM6.50204 2.2107L7.79504 3.5037L2.75704 8.5407L1.13904 8.8647L1.46404 7.2487L6.50204 2.2107ZM8.50204 2.7967L7.20904 1.5027L7.44304 1.2687C7.52751 1.18213 7.62831 1.1132 7.73961 1.06588C7.85091 1.01856 7.97049 0.993802 8.09143 0.993038C8.21237 0.992273 8.33226 1.01552 8.44415 1.06142C8.55604 1.10733 8.65771 1.17499 8.74326 1.26047C8.82881 1.34596 8.89654 1.44757 8.94254 1.55943C8.98853 1.67128 9.01187 1.79115 9.0112 1.91209C9.01053 2.03303 8.98586 2.15263 8.93863 2.26397C8.8914 2.37531 8.82254 2.47616 8.73604 2.5607L8.50204 2.7947V2.7967Z" fill="white"/>
</svg>
