<svg viewBox="0 0 26 26" fill="#fff" xmlns="http://www.w3.org/2000/svg">
<path fill-rule="evenodd" clip-rule="evenodd" d="M11.7839 0C14.8806 0 17.3999 2.587 17.3999 5.7668V6.9784C17.3999 7.5166 16.9745 7.9534 16.4504 7.9534C15.9263 7.9534 15.5009 7.5166 15.5009 6.9784V5.7668C15.5009 3.6608 13.8336 1.95 11.7839 1.95H5.61219C3.56506 1.95 1.899 3.6608 1.899 5.7668V20.2345C1.899 22.3392 3.56506 24.05 5.61219 24.05H11.7979C13.8387 24.05 15.5009 22.3444 15.5009 20.2488V19.0229C15.5009 18.4847 15.9263 18.0479 16.4504 18.0479C16.9745 18.0479 17.3999 18.4847 17.3999 19.0229V20.2488C17.3999 23.4208 14.8856 26 11.7979 26H5.61219C2.51808 26 0 23.4143 0 20.2345V5.7668C0 2.587 2.51808 0 5.61219 0H11.7839ZM22.0134 8.5202L25.7202 12.3097C25.7533 12.3434 25.7829 12.3784 25.81 12.4155L25.7202 12.3097C25.7651 12.3551 25.805 12.4047 25.8396 12.4576C25.8548 12.4816 25.8695 12.5064 25.8831 12.5319C25.8942 12.5518 25.9043 12.5726 25.9138 12.5937C25.9218 12.6124 25.9294 12.631 25.9365 12.65C25.9461 12.6747 25.9544 12.7001 25.9618 12.7258C25.9673 12.7461 25.9724 12.7663 25.9768 12.7868C25.9825 12.8116 25.9869 12.8366 25.9904 12.8618C25.9924 12.8782 25.9944 12.8953 25.9959 12.9126C25.9988 12.9422 26 12.9711 26 13L25.9935 13.0806L25.9909 13.1322C25.9907 13.1344 25.9904 13.1367 25.9901 13.1389L26 13C26 13.0722 25.9922 13.1436 25.9771 13.2131C25.9724 13.2337 25.9673 13.2539 25.9616 13.2738C25.9544 13.2999 25.9461 13.3253 25.9367 13.3503C25.9294 13.369 25.9218 13.3876 25.9135 13.406C25.9043 13.4274 25.8942 13.4482 25.8833 13.4686C25.8695 13.4936 25.8548 13.5184 25.8391 13.5424C25.8302 13.5567 25.8205 13.5707 25.8103 13.5845C25.7802 13.6253 25.7473 13.6636 25.7118 13.6991L22.0134 17.4811C21.8285 17.6709 21.5855 17.7658 21.3436 17.7658C21.1006 17.7658 20.8562 17.6709 20.6714 17.4785C20.3017 17.0963 20.303 16.4801 20.6739 16.1005L22.75 13.975H9.8062C9.28207 13.975 8.85669 13.5382 8.85669 13C8.85669 12.4618 9.28207 12.025 9.8062 12.025H22.7526L20.6739 9.9008C20.303 9.5212 20.3005 8.905 20.6714 8.5228C21.0411 8.1406 21.6412 8.1406 22.0134 8.5202Z"/>
</svg>
