<svg width="26" height="26" viewBox="0 0 26 26" fill="none" xmlns="http://www.w3.org/2000/svg">
<g clip-path="url(#clip0_6236_436)">
<path fill-rule="evenodd" clip-rule="evenodd" d="M11.9167 2.16699C10.4802 2.16699 9.10241 2.73768 8.08659 3.7535C7.07076 4.76932 6.50008 6.14707 6.50008 7.58366C6.50008 9.02025 7.07076 10.398 8.08659 11.4138C9.10241 12.4296 10.4802 13.0003 11.9167 13.0003C13.3533 13.0003 14.7311 12.4296 15.7469 11.4138C16.7627 10.398 17.3334 9.02025 17.3334 7.58366C17.3334 6.14707 16.7627 4.76932 15.7469 3.7535C14.7311 2.73768 13.3533 2.16699 11.9167 2.16699ZM11.9167 14.0837C9.32216 14.0837 6.9605 14.8355 5.22391 15.8939C4.35725 16.4247 3.61625 17.0477 3.08108 17.7247C2.55458 18.3921 2.16675 19.1894 2.16675 20.042C2.16675 20.9574 2.612 21.6789 3.25333 22.1935C3.86 22.681 4.66058 23.0038 5.511 23.2292C7.2205 23.6809 9.502 23.8337 11.9167 23.8337C12.1659 23.8337 12.4151 23.8315 12.6588 23.8282C12.8403 23.8258 13.0182 23.7777 13.1762 23.6886C13.3342 23.5994 13.4674 23.472 13.5633 23.318C13.6593 23.164 13.7151 22.9884 13.7255 22.8072C13.7359 22.6261 13.7007 22.4452 13.623 22.2812C13.2113 21.4121 12.9985 20.4621 13.0001 19.5003C13.0001 18.144 13.415 16.8873 14.1235 15.8462C14.2288 15.6915 14.2922 15.5122 14.3076 15.3257C14.323 15.1391 14.2898 14.9518 14.2112 14.7819C14.1327 14.6121 14.0115 14.4655 13.8594 14.3564C13.7073 14.2473 13.5296 14.1795 13.3435 14.1595C12.8777 14.1097 12.401 14.0837 11.9167 14.0837ZM20.4361 15.1637C20.3407 15.0001 20.2041 14.8643 20.0399 14.7699C19.8756 14.6755 19.6895 14.6259 19.5001 14.6259C19.3107 14.6259 19.1245 14.6755 18.9603 14.7699C18.7961 14.8643 18.6595 15.0001 18.5641 15.1637L17.5782 16.8559L15.6651 17.2697C15.4798 17.3098 15.3084 17.3978 15.1677 17.5248C15.0271 17.6519 14.9223 17.8137 14.8638 17.9939C14.8052 18.1742 14.795 18.3666 14.8341 18.5521C14.8732 18.7375 14.9602 18.9095 15.0866 19.0507L16.3909 20.5111L16.1937 22.4589C16.1746 22.6474 16.2053 22.8376 16.2827 23.0105C16.36 23.1835 16.4814 23.3331 16.6347 23.4445C16.7879 23.5559 16.9677 23.6251 17.1561 23.6453C17.3445 23.6655 17.5349 23.6359 17.7082 23.5596L19.5001 22.7687L21.2919 23.5596C21.4653 23.6359 21.6557 23.6655 21.8441 23.6453C22.0324 23.6251 22.2122 23.5559 22.3655 23.4445C22.5188 23.3331 22.6401 23.1835 22.7175 23.0105C22.7949 22.8376 22.8255 22.6474 22.8064 22.4589L22.6092 20.51L23.9136 19.0507C24.0399 18.9095 24.127 18.7375 24.1661 18.5521C24.2052 18.3666 24.1949 18.1742 24.1364 17.9939C24.0778 17.8137 23.973 17.6519 23.8324 17.5248C23.6918 17.3978 23.5203 17.3098 23.3351 17.2697L21.4219 16.8559L20.4361 15.1637Z" fill="#fff"/>
</g>
<defs>
<clipPath id="clip0_6236_436">
<rect width="26" height="26" fill="white"/>
</clipPath>
</defs>
</svg>
