<svg width="26" height="26" viewBox="0 0 26 26" fill="none" xmlns="http://www.w3.org/2000/svg">
<path d="M13.0216 3.15234C9.43581 3.15234 6.52164 6.06651 6.52164 9.65234V12.7832C6.52164 13.444 6.23997 14.4515 5.90414 15.0148L4.65831 17.084C3.88914 18.3623 4.41997 19.7815 5.82831 20.2582C10.4975 21.8182 15.535 21.8182 20.2041 20.2582C21.515 19.8248 22.0891 18.2757 21.3741 17.084L20.1283 15.0148C19.8033 14.4515 19.5216 13.444 19.5216 12.7832V9.65234C19.5216 6.07734 16.5966 3.15234 13.0216 3.15234Z" stroke="#fff" stroke-width="1.5" stroke-miterlimit="10" stroke-linecap="round"/>
<path d="M15.0259 3.46656C13.7158 3.09345 12.3276 3.09345 11.0176 3.46656C11.3317 2.6649 12.1117 2.10156 13.0217 2.10156C13.9317 2.10156 14.7117 2.6649 15.0259 3.46656Z" stroke="#fff" stroke-width="1.5" stroke-miterlimit="10" stroke-linecap="round" stroke-linejoin="round"/>
<path d="M16.2717 20.6484C16.2717 22.4359 14.8092 23.8984 13.0217 23.8984C12.1334 23.8984 11.3101 23.5301 10.7251 22.9451C10.1164 22.3355 9.77367 21.5099 9.77173 20.6484" stroke="#fff" stroke-width="1.5" stroke-miterlimit="10"/>
</svg>
