<svg width="24" height="24" viewBox="0 0 24 24" fill="none" xmlns="http://www.w3.org/2000/svg">
<path d="M17.5301 7.77C17.4605 7.76 17.3897 7.76 17.3201 7.77C16.5732 7.74556 15.8653 7.43119 15.3463 6.89355C14.8273 6.3559 14.5381 5.63726 14.5401 4.89C14.5401 3.3 15.8301 2 17.4301 2C19.0201 2 20.3201 3.29 20.3201 4.89C20.318 5.63773 20.0261 6.35553 19.5058 6.89258C18.9855 7.42963 18.2774 7.74413 17.5301 7.77ZM20.7921 14.7C19.6721 15.45 18.1021 15.73 16.6521 15.54C17.0321 14.72 17.2321 13.81 17.2421 12.85C17.2421 11.85 17.0221 10.9 16.6021 10.07C18.0821 9.87 19.6521 10.15 20.7821 10.9C22.3621 11.94 22.3621 13.65 20.7921 14.7ZM6.44009 7.77C6.51009 7.76 6.58009 7.76 6.65009 7.77C7.39696 7.74556 8.10493 7.43119 8.62391 6.89355C9.14289 6.3559 9.43205 5.63726 9.43009 4.89C9.43009 4.51114 9.35547 4.13598 9.21049 3.78596C9.0655 3.43593 8.85299 3.11789 8.5851 2.85C8.3172 2.5821 7.99916 2.36959 7.64914 2.22461C7.29911 2.07962 6.92396 2.005 6.54509 2.005C6.16623 2.005 5.79108 2.07962 5.44105 2.22461C5.09103 2.36959 4.77299 2.5821 4.50509 2.85C4.23719 3.11789 4.02469 3.43593 3.8797 3.78596C3.73472 4.13598 3.66009 4.51114 3.66009 4.89C3.66009 6.45 4.89009 7.72 6.44009 7.77ZM6.55109 12.85C6.55109 13.82 6.76109 14.74 7.14109 15.57C5.73109 15.72 4.26109 15.42 3.18109 14.71C1.60109 13.66 1.60109 11.95 3.18109 10.9C4.25109 10.18 5.76109 9.89 7.18109 10.05C6.77109 10.89 6.55109 11.84 6.55109 12.85ZM12.1201 15.87C12.0337 15.86 11.9465 15.86 11.8601 15.87C10.9709 15.8401 10.1283 15.4655 9.51052 14.8253C8.89274 14.1851 8.54829 13.3297 8.55009 12.44C8.56009 10.54 10.0901 9 12.0001 9C13.9001 9 15.4401 10.54 15.4401 12.44C15.4395 13.3306 15.093 14.1862 14.4735 14.8262C13.8541 15.4662 13.0103 15.8404 12.1201 15.87ZM8.87009 17.94C7.36009 18.95 7.36009 20.61 8.87009 21.61C10.5901 22.76 13.4101 22.76 15.1301 21.61C16.6401 20.6 16.6401 18.94 15.1301 17.94C13.4201 16.79 10.6001 16.79 8.87009 17.94Z" fill="white"/>
</svg>
