<svg width="40" height="40" viewBox="0 0 40 40" fill="none" xmlns="http://www.w3.org/2000/svg">
<circle cx="20" cy="20" r="20" fill="#252525"/>
<path d="M17.273 20C17.273 20.6028 17.0335 21.1809 16.6073 21.6071C16.1811 22.0333 15.603 22.2727 15.0003 22.2727C14.3975 22.2727 13.8194 22.0333 13.3932 21.6071C12.967 21.1809 12.7275 20.6028 12.7275 20C12.7275 19.3973 12.967 18.8192 13.3932 18.393C13.8194 17.9667 14.3975 17.7273 15.0003 17.7273C15.603 17.7273 16.1811 17.9667 16.6073 18.393C17.0335 18.8192 17.273 19.3973 17.273 20Z" stroke="#B0B0B0" stroke-width="1.5"/>
<path d="M21.8184 15L17.2729 18.1818M21.8184 25L17.2729 21.8182" stroke="#B0B0B0" stroke-width="1.5" stroke-linecap="round"/>
<path d="M26.3638 25.9091C26.3638 26.5119 26.1244 27.09 25.6981 27.5162C25.2719 27.9424 24.6939 28.1819 24.0911 28.1819C23.4883 28.1819 22.9102 27.9424 22.484 27.5162C22.0578 27.09 21.8184 26.5119 21.8184 25.9091C21.8184 25.3064 22.0578 24.7283 22.484 24.3021C22.9102 23.8759 23.4883 23.6364 24.0911 23.6364C24.6939 23.6364 25.2719 23.8759 25.6981 24.3021C26.1244 24.7283 26.3638 25.3064 26.3638 25.9091ZM26.3638 14.091C26.3638 14.6937 26.1244 15.2718 25.6981 15.698C25.2719 16.1242 24.6939 16.3637 24.0911 16.3637C23.4883 16.3637 22.9102 16.1242 22.484 15.698C22.0578 15.2718 21.8184 14.6937 21.8184 14.091C21.8184 13.4882 22.0578 12.9101 22.484 12.4839C22.9102 12.0577 23.4883 11.8182 24.0911 11.8182C24.6939 11.8182 25.2719 12.0577 25.6981 12.4839C26.1244 12.9101 26.3638 13.4882 26.3638 14.091Z" stroke="#B0B0B0" stroke-width="1.5"/>
</svg>
